<svg width="196" height="254" viewBox="0 0 196 254" fill="none" xmlns="http://www.w3.org/2000/svg">
<path d="M121.14 156.102C118.75 156.402 116.35 156.682 113.96 156.902C120.05 156.402 123.81 155.762 124.52 155.632C123.4 155.802 122.27 155.952 121.14 156.102Z" fill="white"/>
<path d="M175.03 175.542C169.21 171.852 162.96 169.072 156.51 166.682C156.18 166.562 155.85 166.422 155.53 166.272C155.48 166.252 155.47 166.152 155.38 165.952C155.77 165.802 156.14 165.652 156.52 165.502C165.02 162.382 173.16 158.562 180.35 152.972C185.83 148.722 190.65 143.842 193.4 137.322C196.97 128.862 196.32 120.612 191.55 112.782C187.79 106.612 182.5 101.952 176.54 97.9824C170.25 93.8024 163.44 90.7024 156.38 88.0924C155.93 87.9324 155.51 87.7124 154.82 87.4224C156.66 86.7124 158.2 86.1224 159.75 85.5124C167.82 82.3424 175.41 78.3324 182.13 72.7924C187.22 68.5924 191.43 63.6924 193.86 57.4624C195.08 54.3324 195.5 51.1024 195.49 47.6824C195.49 39.3824 191.7 32.9724 186.24 27.2424C179.36 20.0124 170.86 15.2824 161.8 11.4624C151.56 7.15242 140.88 4.42242 129.94 2.60242C117.57 0.53242 105.1 -0.25758 92.5795 0.0724204C83.3095 0.31242 74.0895 1.16242 64.9295 2.73242C55.8495 4.29242 46.9495 6.50242 38.3195 9.70242C29.2795 13.0524 20.7195 17.3224 13.2895 23.5824C9.14951 27.0824 5.50951 31.0424 3.04951 35.9624C-1.35049 44.7724 -0.950488 53.4224 3.99951 61.8824C7.91951 68.5724 13.6795 73.3824 20.0795 77.5324C26.1095 81.4424 32.6195 84.3424 39.3395 86.8324C39.7795 86.9924 40.1995 87.2424 40.7795 87.5124C37.8195 88.7024 35.0495 89.7324 32.3295 90.9124C25.4795 93.8924 18.9695 97.4724 13.2995 102.382C8.77951 106.282 4.74951 110.622 2.33951 116.212C-1.50049 125.112 -0.520488 133.612 4.64951 141.672C8.37951 147.502 13.4995 151.942 19.2095 155.722C25.5895 159.952 32.4795 163.142 39.6995 165.642C39.8695 165.702 40.0295 165.782 40.1795 165.872C40.2295 165.902 40.2395 165.992 40.3295 166.232C39.0595 166.732 37.7795 167.252 36.4995 167.742C28.7195 170.742 21.3795 174.542 14.7895 179.702C10.9095 182.732 7.46951 186.192 4.77951 190.332C-1.81049 200.492 -1.53049 211.752 5.54951 221.582C9.82951 227.512 15.3695 232.022 21.5895 235.782C31.9295 242.042 43.1895 245.912 54.8695 248.692C63.5095 250.752 72.2795 252.062 81.1295 252.742C83.7095 252.942 86.2995 252.952 88.8795 253.052C89.3295 253.072 89.7895 253.092 90.2595 253.332C89.7095 253.442 89.1495 253.552 88.5995 253.662H109.52C107.96 253.522 106.39 253.382 104.83 253.232V253.082C105.22 253.052 105.61 253.002 106 253.002C114.43 253.072 122.77 252.072 131.06 250.662C140.85 248.992 150.42 246.512 159.66 242.872C167.93 239.622 175.75 235.552 182.55 229.762C186.68 226.242 190.35 222.292 192.73 217.332C197.31 207.802 196.48 198.622 190.65 189.872C186.62 183.822 181.09 179.382 175.04 175.532L175.03 175.542ZM36.9995 66.6824C32.9495 64.6424 29.1095 62.2124 25.8495 59.0224C24.6995 57.8924 23.6095 56.6824 22.6795 55.3724C19.1395 50.3924 19.2995 45.2124 22.9695 40.3224C25.3195 37.1924 28.2695 34.7624 31.5095 32.6524C38.0295 28.4024 45.1995 25.5824 52.6095 23.3524C61.3695 20.7224 70.3295 19.1124 79.4295 18.2324C83.8495 17.8024 88.3195 17.5224 92.7595 17.4724C98.7895 17.4024 104.84 17.4024 110.85 17.7724C121.84 18.4624 132.68 20.2124 143.25 23.4024C150.59 25.6124 157.69 28.4224 164.16 32.6224C167.31 34.6624 170.23 36.9924 172.52 40.0224C176.75 45.6224 176.6 51.2324 172.12 56.6324C169.59 59.6824 166.5 62.0824 163.16 64.1624C154.82 69.3324 145.65 72.3724 136.19 74.6324C124.01 77.5424 111.62 78.7124 99.1295 78.8624C89.6995 78.8924 80.3095 78.3124 70.9995 76.8524C59.2095 75.0124 47.7395 72.0824 37.0195 66.6824H36.9995ZM40.2995 147.002C35.0295 144.652 29.9795 141.872 25.8495 137.762C24.1895 136.122 22.7095 134.192 21.5395 132.162C19.4995 128.642 19.6595 124.952 21.5495 121.352C23.7595 117.132 27.2795 114.202 31.1495 111.642C37.9495 107.142 45.4395 104.182 53.2295 101.922C62.8795 99.1224 72.7395 97.4124 82.7495 96.7124C88.1495 96.3324 93.5795 96.0724 98.9995 96.0924C115.39 96.1724 131.52 98.1524 147.13 103.402C154.48 105.872 161.49 109.052 167.64 113.902C170.34 116.042 172.69 118.482 174.26 121.602C176.05 125.142 176.01 128.642 174.22 132.152C172.6 135.332 170.14 137.772 167.37 139.942C161.88 144.252 155.65 147.182 149.15 149.542C141.18 152.432 132.99 154.362 124.64 155.612C124.64 155.612 124.62 155.612 124.57 155.622C124.55 155.622 124.53 155.622 124.51 155.632C123.8 155.762 120.03 156.402 113.95 156.902C113.89 156.902 113.83 156.912 113.77 156.922C110.48 157.222 107.19 157.422 103.88 157.442C103.85 157.442 103.81 157.442 103.78 157.442C101.86 157.492 99.8295 157.512 97.6895 157.502C89.8595 157.462 80.6595 156.952 70.5595 155.552C60.1695 153.982 50.0295 151.352 40.2995 147.002ZM173.83 211.442C171.61 215.232 168.36 217.992 164.79 220.402C159.12 224.222 152.9 226.902 146.44 229.042C136.2 232.432 125.68 234.472 114.95 235.312C109.08 235.772 103.19 236.122 97.3095 236.122C84.1295 236.132 71.0695 234.842 58.2395 231.632C49.1595 229.362 40.3495 226.332 32.3495 221.332C29.0095 219.252 25.9095 216.872 23.4395 213.752C18.9795 208.082 18.9595 202.602 23.4695 196.972C26.6995 192.952 30.8795 190.092 35.3495 187.652C43.6395 183.122 52.5595 180.332 61.7395 178.322C68.2495 176.902 74.7895 175.882 81.3995 175.322C81.4395 175.322 81.4695 175.322 81.4995 175.312C90.5995 174.432 99.6795 174.522 106.65 174.852C106.69 174.852 106.73 174.852 106.76 174.852C110.66 174.982 114.57 175.282 118.47 175.742C118.52 175.742 118.56 175.752 118.6 175.762C118.67 175.762 118.75 175.782 118.82 175.792C119.04 175.822 119.16 175.832 119.16 175.832C119.99 175.932 120.82 176.042 121.65 176.152C134.33 177.912 146.69 180.822 158.24 186.542C163 188.892 167.46 191.732 171.08 195.672C172.17 196.852 173.14 198.182 173.94 199.572C176.22 203.522 176.13 207.502 173.83 211.442Z" fill="white"/>
<path d="M142.44 126.732C142.41 131.472 141.28 135.862 137.97 139.432C133.61 144.132 127.68 144.012 123.42 139.192C121.27 136.762 120.04 133.862 119.53 130.692C118.76 125.892 119.09 121.182 121.62 116.912C122.58 115.282 123.88 113.722 125.36 112.552C128.97 109.692 133.43 109.952 136.89 113.002C140.69 116.342 142.15 120.752 142.43 125.672C142.45 126.032 142.43 126.392 142.43 126.752L142.44 126.732Z" fill="white"/>
<path d="M72.0995 139.392C68.1595 143.892 62.2795 144.062 58.0795 139.802C55.2095 136.892 53.8295 133.282 53.3795 129.292C52.8695 124.812 53.5095 120.522 55.8195 116.602C57.6395 113.522 60.0895 111.192 63.8295 110.672C66.3595 110.322 68.6195 111.072 70.5495 112.662C74.4295 115.852 76.1395 120.102 76.3695 125.032C76.3995 125.602 76.3695 126.182 76.3695 126.762C76.5795 131.522 75.2595 135.782 72.0995 139.402V139.392Z" fill="white"/>
<path d="M138.109 46.8624C133.249 49.1824 128.529 51.4524 123.809 53.6824C115.499 57.6024 107.189 61.5024 98.8795 65.4324C98.1595 65.7724 97.5695 65.7824 96.8595 65.4424C84.0995 59.4424 71.3195 53.4624 58.5495 47.4724C58.1795 47.3024 57.8395 47.0524 57.2895 46.7224C59.0195 45.9124 60.5195 45.1924 62.0295 44.4824C73.6595 39.0224 85.2895 33.5524 96.9395 28.1424C97.4395 27.9024 98.2395 27.9024 98.7495 28.1424C111.519 34.1224 124.269 40.1624 137.019 46.1824C137.389 46.3524 137.709 46.6124 138.109 46.8624Z" fill="white"/>
<path d="M139.44 207.633C131.42 211.403 123.66 215.043 115.92 218.693C110.63 221.183 105.34 223.683 100.09 226.233C99.1295 226.703 98.3595 226.423 97.5395 226.033C92.5695 223.713 87.5895 221.403 82.6195 219.073C74.8895 215.443 67.1695 211.803 59.4495 208.163C59.1695 208.033 58.8995 207.873 58.4995 207.663C58.7795 207.453 58.9495 207.272 59.1495 207.182C72.0395 201.142 84.9395 195.113 97.8295 189.053C98.6495 188.663 99.2995 188.663 100.14 189.053C112.85 195.063 125.58 201.023 138.31 207.003C138.62 207.153 138.91 207.333 139.45 207.633H139.44Z" fill="white"/>
</svg>
