<svg width="234" height="202" viewBox="0 0 234 202" fill="none" xmlns="http://www.w3.org/2000/svg">
<path d="M223.295 96.0024C217.445 96.8924 211.605 97.8224 205.765 98.7524C205.015 98.8724 204.515 98.7524 204.205 97.9824C203.955 97.3424 203.605 96.7424 203.245 96.0324L223.365 86.8524C224.865 86.2024 226.015 85.0524 226.975 83.6424C230.345 78.7024 231.545 73.0224 232.685 66.9324C231.265 67.7124 230.135 68.3124 229.015 68.9424C220.265 73.8524 211.505 78.7524 202.785 83.7124C201.845 84.2524 201.105 85.1724 200.325 85.9624C199.945 86.3524 199.695 86.8624 199.275 87.4824C198.715 86.1624 198.195 85.0724 197.805 83.9324C197.695 83.6224 197.875 83.0724 198.125 82.8224L217.115 63.8024L217.205 63.7124C219.515 61.3224 220.095 58.0324 220.335 54.6424C220.755 48.7224 219.745 42.9324 218.305 37.2124C218.275 37.1024 218.195 37.0124 218.065 36.7624C209.005 47.5424 200.025 58.2424 190.985 69.0124C190.295 68.3024 190.055 67.6224 190.285 66.6424L198.435 34.5024C198.555 34.1124 198.655 33.7224 198.735 33.3324C198.875 32.6024 198.945 31.8724 198.945 31.1424C198.945 28.8024 198.285 26.4424 197.375 24.1024C195.095 18.1724 191.415 13.1024 187.435 8.22239C185.975 6.44239 184.415 4.74239 182.675 2.76239C182.125 6.08239 181.645 9.04239 181.155 12.0024C179.205 23.8124 176.985 35.5824 175.405 47.4324C174.225 56.2424 170.405 63.8824 166.285 71.4624C161.355 80.5324 155.335 88.8124 147.685 95.8124C139.225 103.552 129.525 108.792 118.035 110.262C109.125 111.402 100.455 110.222 92.0547 107.112C82.0147 103.402 72.2047 99.1824 62.8747 93.9124C56.3247 90.2124 50.1247 86.0724 44.7847 80.6824C41.9447 77.8124 40.3847 74.5524 40.3147 70.5224C40.1047 59.0424 41.7047 47.8924 46.0647 37.2124C47.2647 34.2824 48.7847 31.5124 51.1247 29.2924C54.0147 26.5524 57.0347 26.0324 60.6547 27.7224C64.5547 29.5424 67.5647 32.5024 70.3547 35.6724C77.6547 43.9424 83.3747 53.3024 88.4047 63.0624C91.4647 69.0124 94.1047 75.1824 96.9347 81.2524C97.0447 81.4824 97.1547 81.7224 97.2947 82.0024C98.6147 78.4824 100.815 60.7024 100.945 52.4024C107.785 61.0924 113.985 69.9424 119.575 79.3624C119.575 78.4724 119.555 77.5724 119.575 76.6724C119.885 63.8524 118.875 51.1724 115.685 38.7124C114.735 35.0024 113.565 31.3724 112.145 27.8324C111.925 27.2824 111.695 26.7324 111.465 26.1924C111.455 26.1724 111.445 26.1424 111.435 26.1224C108.925 20.8124 104.205 16.6824 104.015 16.5124C96.7647 10.7824 88.6047 6.71239 79.8547 3.75239C73.4547 1.59239 66.9047 0.302394 60.1447 0.0323944C51.6547 -0.297606 43.8247 1.90239 36.5847 6.23239C26.6047 12.1924 18.5647 20.0924 13.5747 30.6824C7.50466 43.5324 2.92466 56.8824 0.894663 71.0224C-1.01534 84.3124 0.174663 97.3324 4.06466 110.162C8.91466 126.132 16.1347 140.972 25.1547 154.962C28.3447 159.902 31.6347 164.792 35.8247 168.962C39.6447 172.772 43.5847 176.452 47.5047 180.172C51.8747 184.312 56.4947 188.132 61.6747 191.242C68.5847 195.392 76.1847 197.522 83.9847 199.132C83.9847 199.132 84.0247 199.132 84.1147 199.162C84.9647 199.322 89.7447 200.202 96.5547 200.822C118.745 202.842 141.005 197.292 159.615 185.032C159.705 184.972 159.795 184.912 159.885 184.852C160.715 184.302 161.245 184.322 162.055 184.872C165.575 187.232 169.315 189.172 173.635 189.522C175.125 189.642 176.645 189.442 177.975 189.392C176.145 186.352 174.385 183.492 172.695 180.592C172.285 179.892 172.095 179.052 171.875 178.252C171.445 176.682 171.885 175.632 173.325 174.922C173.595 174.792 174.055 174.932 174.385 175.062C178.035 176.482 181.765 177.602 185.715 177.712C188.405 177.782 191.025 177.432 193.365 176.052C191.395 174.322 189.335 172.742 187.585 170.882C186.225 169.442 185.075 167.722 184.135 165.972C183.095 164.022 182.985 161.952 184.595 160.092C185.025 159.602 185.335 159.012 185.765 158.372C191.925 160.492 198.125 162.382 204.745 159.212C203.445 158.202 202.185 157.412 201.165 156.382C199.415 154.622 197.655 152.822 196.185 150.822C193.945 147.762 193.935 143.642 196.565 140.282C202.445 142.222 208.365 143.822 214.335 140.872C212.055 138.762 209.795 136.782 207.685 134.652C206.755 133.702 206.115 132.452 205.385 131.302C204.245 129.482 204.345 127.622 205.525 125.892C205.795 125.492 206.505 125.252 207.045 125.182C211.205 124.612 215.255 123.702 218.735 121.182C219.875 120.352 220.835 119.282 221.945 118.242C219.345 117.522 216.995 116.992 214.735 116.202C213.215 115.682 211.825 114.792 210.385 114.092C209.685 113.752 209.535 113.232 209.625 112.482C209.775 111.152 209.815 109.802 209.915 108.192L219.325 107.812C219.535 107.812 219.745 107.802 219.955 107.782C220.995 107.692 221.925 107.412 222.795 106.982C223.665 106.552 224.465 105.982 225.225 105.322C228.125 102.832 230.255 99.7224 232.225 96.4924C232.565 95.9424 232.935 95.4124 233.295 94.8724V94.6124C229.955 95.0824 226.615 95.5124 223.285 96.0224L223.295 96.0024ZM97.1247 26.9324C101.275 26.9824 104.805 30.4724 104.735 34.4524C104.655 38.5024 101.175 41.7624 96.9247 41.7324C92.7947 41.7024 89.2847 38.3224 89.3147 34.3824C89.3447 30.2924 92.9147 26.8824 97.1347 26.9324H97.1247ZM58.0847 16.6724C59.5647 16.6524 60.8647 17.9424 60.8547 19.4024C60.8447 20.8124 59.5847 22.0124 58.1247 22.0024C56.5847 21.9924 55.3047 20.7724 55.3147 19.3024C55.3247 17.9624 56.6647 16.6824 58.0747 16.6724H58.0847ZM46.4547 18.7124C48.5047 18.6724 50.2347 20.2824 50.2447 22.2424C50.2647 24.0724 48.5047 25.7624 46.5647 25.7824C44.6247 25.8024 42.8847 24.1624 42.8647 22.2824C42.8447 20.3324 44.4347 18.7524 46.4547 18.7124ZM35.4547 28.9224C38.5547 28.8824 41.1747 31.3924 41.1547 34.3924C41.1347 37.3624 38.6247 39.7724 35.5247 39.7924C32.5047 39.8224 29.8447 37.3324 29.8047 34.4424C29.7647 31.4324 32.2847 28.9624 35.4547 28.9124V28.9224ZM27.8447 47.4224C32.0547 47.4424 35.5647 50.8524 35.5047 54.8624C35.4547 58.9124 31.9647 62.2224 27.7547 62.2124C23.6147 62.2024 20.1247 58.8624 20.0947 54.9024C20.0647 50.7924 23.5847 47.4024 27.8447 47.4224ZM28.7547 71.1424C34.5347 71.1224 39.2647 75.6024 39.3247 81.1524C39.3847 86.6824 34.6647 91.3524 28.9647 91.3924C23.1347 91.4324 18.3647 86.9124 18.3347 81.3024C18.3047 75.7524 23.0147 71.1624 28.7547 71.1424ZM18.0847 109.792C17.4647 113.772 16.7247 117.732 16.0247 121.692C15.9747 121.982 15.8547 122.252 15.6947 122.802C13.8447 118.462 12.1047 114.482 12.3147 110.002C12.4947 106.102 14.6347 103.842 18.5247 103.262C22.3447 102.692 26.0247 103.512 29.6747 104.442C31.1447 104.812 32.5847 105.342 34.0247 106.072C32.6347 106.192 31.2347 106.222 29.8647 106.452C26.3747 107.032 22.8947 107.702 19.4047 108.322C18.5647 108.472 18.2247 108.892 18.0747 109.792H18.0847ZM28.1147 120.622C27.9947 124.652 27.7947 128.692 27.6247 132.722C27.6147 133.012 27.5847 133.292 27.5647 133.582C25.2347 130.302 23.3247 126.922 22.5547 123.032C21.6047 118.222 23.5047 115.212 28.2747 114.042C32.4547 113.022 36.6447 113.512 40.8147 114.172C41.7047 114.312 42.5747 114.512 43.4647 114.902C41.6547 115.322 39.8147 115.642 38.0447 116.172C35.0747 117.072 32.1447 118.112 29.1947 119.082C28.4147 119.332 28.1447 119.792 28.1147 120.622ZM45.1347 128.502C44.3047 128.802 43.9147 129.222 43.8847 130.202C43.6947 135.992 43.4147 141.772 43.1647 147.562C43.1447 147.982 43.1247 148.402 43.0847 149.082C42.7547 148.672 42.5547 148.482 42.4147 148.242C39.9147 144.202 37.6847 140.032 36.3947 135.432C34.1147 127.282 37.4847 122.112 45.8547 120.912C51.6647 120.082 57.4047 120.732 63.1147 121.812C63.8847 121.952 64.6447 122.152 65.4147 122.332C60.0047 123.862 54.5247 125.392 49.0647 126.992C47.7247 127.382 46.4647 128.032 45.1447 128.502H45.1347ZM67.7747 168.462C66.8347 167.612 65.9647 166.892 65.1747 166.102C62.2047 163.122 59.2747 160.102 56.3047 157.122C53.6347 154.432 52.4347 151.122 52.1647 147.432C51.8847 143.582 51.7247 139.722 51.4347 135.882C51.3647 134.912 51.7347 134.592 52.5947 134.392C70.4147 130.262 88.2347 126.112 106.055 121.982C113.945 120.152 121.845 118.392 129.745 116.602C130.025 116.532 130.325 116.512 130.795 116.732C129.525 117.912 128.305 119.142 126.985 120.252C117.785 127.982 107.805 134.582 97.2047 140.192C89.0847 144.482 80.6947 148.272 72.3747 152.172C71.2147 152.722 70.7847 153.382 70.5647 154.542C69.7947 158.762 68.9447 162.972 68.1147 167.182C68.0447 167.552 67.9147 167.912 67.7647 168.472L67.7747 168.462ZM159.355 145.412C155.525 156.142 149.395 165.122 139.895 171.702C133.755 175.952 127.435 179.872 120.795 183.272C119.555 183.912 118.245 184.462 116.905 184.862C113.465 185.902 110.005 186.872 106.545 187.802C102.165 188.982 97.9347 188.162 94.0647 186.112C89.9647 183.952 86.0047 181.492 82.1547 178.922C78.3647 176.392 74.7747 173.562 71.1147 170.842C70.7547 170.572 70.3447 170.182 70.2347 169.782C69.6347 167.412 69.5547 165.032 70.3147 162.532C73.2147 163.362 76.0247 164.282 78.8947 164.972C87.2847 166.982 95.6747 168.962 104.095 170.822C106.215 171.292 108.445 171.272 110.625 171.462C112.135 171.592 113.495 171.192 114.645 170.192C117.195 167.952 119.745 165.712 122.575 163.212C105.775 160.172 89.4647 157.222 73.1447 154.272C73.1147 154.192 73.0847 154.122 73.0547 154.042C73.4547 153.872 73.8547 153.702 74.2547 153.532C79.2947 151.282 84.3247 149.032 89.3747 146.802C89.7447 146.642 90.2147 146.572 90.6147 146.642C99.3547 148.042 108.075 149.562 116.825 150.832C121.065 151.442 125.375 151.622 129.665 151.922C131.345 152.042 132.725 151.502 133.925 150.122C136.175 147.562 138.635 145.182 141.285 142.452C127.505 142.032 114.055 141.622 100.315 141.202C100.685 140.892 100.845 140.712 101.035 140.602C105.985 137.692 110.925 134.772 115.905 131.912C116.445 131.602 117.245 131.492 117.855 131.622C125.185 133.232 132.525 134.752 140.075 134.642C142.025 134.612 143.985 134.262 145.905 133.852C146.645 133.692 147.425 133.102 147.915 132.502C149.795 130.192 150.785 127.442 151.785 124.482H124.695C125.325 123.912 125.645 123.602 125.985 123.322C128.445 121.272 130.835 119.122 133.415 117.232C134.685 116.302 136.305 115.832 137.805 115.232C145.235 112.222 152.665 109.242 160.095 106.252C160.455 106.102 160.835 105.992 161.575 105.732C162.055 108.882 162.645 111.842 162.935 114.832C163.935 125.272 162.895 135.482 159.355 145.402V145.412ZM169.895 110.652C167.645 108.952 167.145 106.452 166.975 103.892C166.615 98.6324 168.965 94.6624 173.185 91.7624C174.725 90.7024 176.445 89.9124 178.085 89.0024C178.175 89.1024 178.275 89.2024 178.365 89.3124C177.475 91.8124 176.595 94.3224 175.705 96.8224C175.105 98.5124 174.535 100.212 173.865 101.882C173.545 102.692 173.715 103.232 174.265 103.862C176.455 106.372 178.585 108.932 180.735 111.472C180.925 111.702 181.085 111.952 181.385 112.362C177.235 113.162 173.375 113.312 169.885 110.672L169.895 110.652ZM180.155 101.722C179.525 97.4424 181.385 93.8724 185.515 91.4824C186.255 91.0524 187.055 90.7224 188.135 90.1924C186.995 93.4124 186.035 96.2724 184.975 99.1024C184.685 99.8824 184.805 100.382 185.325 100.972C186.935 102.822 188.505 104.702 190.105 106.582C186.105 108.672 180.805 106.042 180.165 101.712L180.155 101.722Z" fill="#F0EDD9"/>
<path d="M114.215 81.1724C110.455 79.0824 106.705 79.5024 103.805 82.4024C99.4148 86.8024 97.8948 92.0524 99.7348 98.0724C101.395 103.522 105.605 106.932 110.515 106.962C113.895 106.982 117.015 105.472 119.035 102.762C124.895 94.9224 120.875 84.8724 114.215 81.1624V81.1724Z" fill="#F0EDD9"/>
</svg>
