<svg width="217" height="217" viewBox="0 0 217 217" fill="none" xmlns="http://www.w3.org/2000/svg">
<path d="M183.054 134.226C180.527 133.738 177.922 133.494 175.251 133.494H41.7487C39.0666 133.494 36.4733 133.738 33.9464 134.226C14.6403 137.894 0 154.908 0 175.247C0 198.268 18.7298 217 41.7487 217C64.7675 217 83.4973 198.268 83.4973 175.247V166.313H61.6311V175.247C61.6311 180.723 59.4035 185.71 55.7905 189.301C52.1886 192.893 47.2235 195.132 41.7376 195.132C30.7768 195.132 21.8552 186.22 21.8552 175.247C21.8552 164.274 30.7768 155.363 41.7376 155.363H175.229C186.19 155.363 195.112 164.285 195.112 175.247C195.112 186.209 186.19 195.132 175.229 195.132C169.743 195.132 164.778 192.904 161.176 189.301C157.574 185.71 155.336 180.723 155.336 175.247V166.313H133.469V175.247C133.469 198.279 152.199 217 175.218 217C198.237 217 216.967 198.268 216.967 175.247C216.967 154.908 202.326 137.906 183.02 134.237L183.054 134.226Z" fill="white"/>
<path d="M155.358 41.7528C155.358 30.7798 164.279 21.8684 175.251 21.8684C186.223 21.8684 195.134 30.7798 195.134 41.7528C195.134 52.7259 186.212 61.6373 175.251 61.6373H166.308V83.5058H175.251C177.39 83.5058 179.507 83.3395 181.557 83.0403C201.595 79.9922 217 62.6349 217 41.7639C217 18.7316 198.27 0.0109863 175.251 0.0109863C163.736 0.0109863 153.308 4.69946 145.749 12.2587C138.191 19.8179 133.503 30.2589 133.503 41.7639V122.576H155.369V41.7528H155.358Z" fill="white"/>
<path d="M35.4426 83.0293C37.504 83.3396 39.6097 83.4948 41.7487 83.4948H50.6924V61.6263H41.7487C30.7878 61.6263 21.8662 52.7038 21.8662 41.7419C21.8662 30.7799 30.7878 21.8574 41.7487 21.8574C52.7095 21.8574 61.6422 30.7688 61.6422 41.7419V122.554H83.5084V41.7529C83.5084 30.2368 78.8204 19.8069 71.262 12.2477C63.7036 4.68848 53.2636 0 41.7487 0C18.7298 0 0 18.7317 0 41.7529C0 62.6239 15.405 79.9812 35.4426 83.0293Z" fill="white"/>
<path d="M122.553 61.6375H94.4471V83.5059H122.553V61.6375Z" fill="white"/>
</svg>
