<svg width="196" height="182" viewBox="0 0 196 182" fill="none" xmlns="http://www.w3.org/2000/svg">
<path d="M0 0V76.54H67.09V67.07H76.56V0H0ZM57.62 57.61H18.93V18.93H57.62V57.61Z" fill="#F0EDD9"/>
<path d="M119.25 0V67.08H128.72V76.55H195.81V0H119.26H119.25ZM176.87 57.61H138.18V18.93H176.87V57.61Z" fill="#F0EDD9"/>
<path d="M67.09 114.72V105.25H0V181.8H76.55V114.71H67.08L67.09 114.72ZM57.62 162.87H18.93V124.18H57.62V162.87Z" fill="#F0EDD9"/>
<path d="M128.71 105.26V114.73H119.24V181.82H195.79V105.27H128.7L128.71 105.26ZM176.87 162.88H138.18V124.19H176.87V162.88Z" fill="#F0EDD9"/>
<path d="M67.0902 57.6101H48.1602V124.19H67.0902V57.6101Z" fill="#F0EDD9"/>
<path d="M147.64 57.6101H128.71V124.19H147.64V57.6101Z" fill="#F0EDD9"/>
<path d="M107.36 57.6101H88.4297V124.19H107.36V57.6101Z" fill="#F0EDD9"/>
<path d="M138.18 48.1499H57.6201V67.0799H138.18V48.1499Z" fill="#F0EDD9"/>
<path d="M138.18 81.4299H57.6201V100.36H138.18V81.4299Z" fill="#F0EDD9"/>
<path d="M138.18 114.72H57.6201V133.65H138.18V114.72Z" fill="#F0EDD9"/>
</svg>
