<svg width="294" height="254" viewBox="0 0 294 254" fill="none" xmlns="http://www.w3.org/2000/svg">
<path d="M281.398 121.179C274.026 122.302 266.666 123.476 259.306 124.65C258.361 124.801 257.731 124.65 257.341 123.678C257.025 122.87 256.584 122.113 256.131 121.216L281.486 109.629C283.376 108.809 284.826 107.357 286.035 105.577C290.282 99.3417 291.795 92.1722 293.231 84.4851C291.442 85.4696 290.018 86.227 288.606 87.0222C277.579 93.2198 266.54 99.4048 255.551 105.666C254.366 106.347 253.434 107.508 252.451 108.506C251.972 108.998 251.657 109.642 251.128 110.424C250.422 108.758 249.767 107.382 249.275 105.943C249.137 105.552 249.363 104.858 249.678 104.542L273.61 80.5343L273.723 80.4207C276.634 77.4039 277.365 73.2511 277.668 68.9721C278.197 61.4996 276.924 54.1912 275.109 46.9712C275.072 46.8323 274.971 46.7187 274.807 46.4032C263.39 60.0102 252.073 73.5162 240.681 87.1106C239.811 86.2144 239.509 85.356 239.798 84.119L250.069 43.5505C250.22 43.0582 250.346 42.5659 250.447 42.0737C250.624 41.1522 250.712 40.2308 250.712 39.3093C250.712 36.3557 249.88 33.3768 248.733 30.4231C245.86 22.938 241.222 16.5384 236.207 10.3787C234.367 8.13188 232.401 5.98606 230.208 3.48682C229.515 7.67747 228.91 11.4137 228.293 15.15C225.835 30.0571 223.038 44.9137 221.047 59.8713C219.559 70.9917 214.745 80.6352 209.553 90.2031C203.341 101.652 195.754 112.103 186.114 120.939C175.452 130.709 163.228 137.323 148.748 139.178C137.52 140.617 126.594 139.128 116.008 135.202C103.356 130.519 90.993 125.193 79.2352 118.54C70.9808 113.87 63.1675 108.644 56.438 101.841C52.859 98.2183 50.8931 94.1034 50.8049 89.0165C50.5403 74.526 52.5566 60.4519 58.0511 46.9712C59.5633 43.2728 61.4789 39.7764 64.4278 36.9742C68.0698 33.5156 71.8756 32.8593 76.4375 34.9925C81.3524 37.2897 85.1456 41.026 88.6616 45.0273C97.8611 55.4661 105.069 67.2807 111.408 79.6002C115.265 87.1106 118.592 94.8986 122.158 102.56C122.297 102.851 122.435 103.154 122.612 103.507C124.275 99.064 127.048 76.6213 127.211 66.1447C135.831 77.1136 143.644 88.2845 150.689 100.175C150.689 99.0514 150.664 97.9154 150.689 96.7794C151.08 80.5974 149.807 64.5921 145.787 48.8645C144.59 44.1816 143.115 39.5997 141.326 35.1313C141.048 34.4371 140.759 33.7428 140.469 33.0612C140.456 33.036 140.444 32.9981 140.431 32.9729C137.268 26.2703 131.32 21.0573 131.08 20.8427C121.944 13.61 111.66 8.47269 100.634 4.73644C92.5682 2.00999 84.3139 0.381696 75.7948 0.0408897C65.0957 -0.375651 55.2282 2.40129 46.1043 7.86681C33.5274 15.3898 23.3954 25.3615 17.1069 38.7287C9.45744 54.9486 3.68569 71.7995 1.12746 89.6477C-1.27954 106.423 0.220112 122.857 5.12232 139.052C11.2343 159.21 20.333 177.942 31.7001 195.601C35.7202 201.836 39.8663 208.008 45.1466 213.272C49.9606 218.081 54.9258 222.726 59.8658 227.422C65.3729 232.647 71.1951 237.469 77.723 241.395C86.431 246.633 96.0086 249.322 105.838 251.354C105.838 251.354 105.889 251.354 106.002 251.392C107.073 251.594 113.097 252.705 121.679 253.487C149.643 256.037 177.695 249.031 201.148 233.556C201.261 233.481 201.375 233.405 201.488 233.329C202.534 232.635 203.202 232.66 204.223 233.354C208.659 236.333 213.372 238.782 218.816 239.224C220.694 239.375 222.609 239.123 224.285 239.06C221.979 235.222 219.761 231.612 217.631 227.952C217.115 227.068 216.875 226.008 216.598 224.998C216.056 223.017 216.611 221.691 218.425 220.795C218.766 220.631 219.345 220.808 219.761 220.972C224.361 222.764 229.061 224.178 234.039 224.317C237.429 224.405 240.731 223.963 243.68 222.221C241.197 220.038 238.601 218.043 236.396 215.695C234.682 213.878 233.233 211.707 232.048 209.498C230.738 207.036 230.599 204.424 232.628 202.076C233.17 201.457 233.56 200.713 234.102 199.905C241.865 202.581 249.678 204.966 258.021 200.965C256.383 199.69 254.795 198.693 253.509 197.393C251.304 195.171 249.086 192.899 247.234 190.375C244.411 186.512 244.398 181.312 247.713 177.071C255.123 179.52 262.583 181.539 270.106 177.815C267.233 175.152 264.385 172.653 261.726 169.964C260.554 168.765 259.748 167.187 258.828 165.736C257.391 163.439 257.517 161.091 259.004 158.907C259.344 158.402 260.239 158.099 260.92 158.011C266.162 157.291 271.266 156.143 275.651 152.962C277.088 151.914 278.298 150.564 279.697 149.251C276.42 148.342 273.459 147.673 270.611 146.676C268.695 146.02 266.943 144.896 265.129 144.013C264.246 143.583 264.057 142.927 264.171 141.98C264.36 140.302 264.41 138.598 264.536 136.565L276.395 136.086C276.66 136.086 276.924 136.073 277.189 136.048C278.499 135.934 279.671 135.581 280.768 135.038C281.864 134.495 282.872 133.776 283.83 132.943C287.485 129.8 290.169 125.874 292.652 121.797C293.08 121.103 293.546 120.434 294 119.752V119.424C289.791 120.017 285.582 120.56 281.385 121.204L281.398 121.179ZM122.397 33.9953C127.627 34.0584 132.076 38.4636 131.988 43.4874C131.887 48.5995 127.501 52.7144 122.145 52.6765C116.941 52.6386 112.517 48.3723 112.555 43.399C112.593 38.2364 117.092 33.9322 122.41 33.9953H122.397ZM73.1988 21.0446C75.0639 21.0194 76.7022 22.6477 76.6896 24.4906C76.677 26.2703 75.0891 27.785 73.2492 27.7724C71.3085 27.7598 69.6954 26.2199 69.708 24.3644C69.7206 22.6729 71.4093 21.0573 73.1862 21.0446H73.1988ZM58.5426 23.6196C61.126 23.5691 63.3062 25.6014 63.3188 28.0754C63.344 30.3853 61.126 32.5185 58.6812 32.5437C56.2364 32.5689 54.0436 30.4989 54.0184 28.1258C53.9932 25.6645 55.997 23.6701 58.5426 23.6196ZM44.6803 36.5072C48.5869 36.4567 51.8887 39.6249 51.8635 43.4116C51.8383 47.1605 48.6751 50.2025 44.7685 50.2278C40.9627 50.2656 37.6105 47.1226 37.5601 43.4747C37.5097 39.6754 40.6854 36.5576 44.6803 36.4945V36.5072ZM35.0901 59.8587C40.3956 59.8839 44.8189 64.1882 44.7433 69.2498C44.6803 74.3619 40.2822 78.5399 34.9767 78.5273C29.7594 78.5147 25.3613 74.2988 25.3235 69.3003C25.2857 64.1125 29.7216 59.8334 35.0901 59.8587ZM36.2369 89.7991C43.5209 89.7739 49.4817 95.4288 49.5573 102.434C49.6329 109.414 43.6847 115.309 36.5015 115.36C29.1545 115.41 23.1433 109.705 23.1055 102.624C23.0677 95.6181 29.0033 89.8244 36.2369 89.7991ZM22.7905 138.585C22.0091 143.609 21.0766 148.607 20.1944 153.606C20.1314 153.972 19.9802 154.313 19.7786 155.007C17.4472 149.529 15.2544 144.505 15.519 138.85C15.7459 133.927 18.4427 131.075 23.3449 130.342C28.1589 129.623 32.7965 130.658 37.3963 131.832C39.2488 132.299 41.0635 132.968 42.8782 133.889C41.1265 134.041 39.3622 134.079 37.6357 134.369C33.2376 135.101 28.8521 135.947 24.4539 136.729C23.3954 136.919 22.9669 137.449 22.7779 138.585H22.7905ZM35.4303 152.255C35.2791 157.342 35.0271 162.441 34.8128 167.528C34.8002 167.894 34.7624 168.248 34.7372 168.614C31.8009 164.474 29.3939 160.207 28.4236 155.297C27.2264 149.226 29.6208 145.426 35.632 143.949C40.8997 142.662 46.1799 143.28 51.435 144.114C52.5566 144.29 53.653 144.543 54.7746 145.035C52.4936 145.565 50.1748 145.969 47.9442 146.638C44.2014 147.774 40.509 149.087 36.7914 150.311C35.8084 150.627 35.4682 151.207 35.4303 152.255ZM56.8791 162.202C55.8331 162.58 55.3416 163.11 55.3038 164.347C55.0644 171.656 54.7115 178.952 54.3965 186.26C54.3713 186.79 54.3461 187.32 54.2957 188.179C53.8798 187.661 53.6278 187.421 53.4513 187.118C50.3008 182.019 47.4905 176.755 45.8649 170.949C42.9916 160.662 47.2385 154.136 57.7865 152.621C65.1083 151.573 72.3419 152.394 79.5377 153.757C80.508 153.934 81.4658 154.186 82.4361 154.413C75.6184 156.345 68.7125 158.276 61.8317 160.296C60.143 160.788 58.5552 161.608 56.8917 162.202H56.8791ZM85.4102 212.641C84.2256 211.568 83.1292 210.659 82.1337 209.662C78.3909 205.9 74.6985 202.088 70.9556 198.327C67.5909 194.932 66.0786 190.754 65.7384 186.096C65.3855 181.236 65.1839 176.364 64.8184 171.517C64.7302 170.293 65.1965 169.889 66.2803 169.636C88.7372 164.423 111.194 159.185 133.651 153.972C143.594 151.662 153.55 149.44 163.505 147.181C163.858 147.092 164.236 147.067 164.829 147.345C163.228 148.834 161.691 150.387 160.027 151.788C148.433 161.545 135.856 169.876 122.498 176.957C112.265 182.372 101.692 187.156 91.2072 192.079C89.7453 192.773 89.2035 193.606 88.9262 195.07C87.9558 200.397 86.8847 205.711 85.8387 211.025C85.7505 211.492 85.5867 211.947 85.3976 212.653L85.4102 212.641ZM200.82 183.546C195.994 197.09 188.268 208.425 176.296 216.731C168.559 222.095 160.594 227.043 152.227 231.335C150.664 232.143 149.013 232.837 147.324 233.342C142.989 234.654 138.629 235.879 134.269 237.053C128.749 238.542 123.418 237.507 118.541 234.919C113.374 232.193 108.384 229.088 103.532 225.844C98.7558 222.65 94.2317 219.078 89.6193 215.645C89.1657 215.304 88.649 214.812 88.5103 214.307C87.7542 211.315 87.6534 208.311 88.6112 205.156C92.2658 206.203 95.807 207.365 99.4237 208.236C109.997 210.773 120.57 213.272 131.181 215.62C133.853 216.213 136.663 216.188 139.41 216.428C141.313 216.592 143.027 216.087 144.476 214.825C147.69 211.997 150.903 209.17 154.47 206.014C133.298 202.177 112.744 198.453 92.1775 194.73C92.1397 194.629 92.1019 194.54 92.0641 194.439C92.5682 194.225 93.0723 194.01 93.5764 193.796C99.9278 190.955 106.267 188.115 112.631 185.301C113.097 185.099 113.689 185.01 114.193 185.099C125.208 186.866 136.197 188.784 147.223 190.387C152.567 191.157 157.998 191.385 163.405 191.763C165.522 191.915 167.261 191.233 168.773 189.491C171.609 186.26 174.709 183.256 178.048 179.81C160.682 179.28 143.733 178.762 126.417 178.232C126.884 177.841 127.085 177.614 127.325 177.475C133.563 173.802 139.788 170.116 146.064 166.506C146.745 166.114 147.753 165.976 148.521 166.14C157.759 168.172 167.009 170.091 176.523 169.952C178.981 169.914 181.451 169.472 183.87 168.955C184.803 168.753 185.786 168.008 186.403 167.251C188.773 164.335 190.02 160.864 191.28 157.127H157.141C157.935 156.408 158.339 156.017 158.767 155.663C161.867 153.075 164.879 150.362 168.13 147.976C169.731 146.802 171.772 146.209 173.663 145.452C183.026 141.652 192.389 137.891 201.753 134.117C202.206 133.927 202.685 133.788 203.618 133.46C204.223 137.436 204.966 141.173 205.332 144.947C206.592 158.124 205.281 171.012 200.82 183.533V183.546ZM214.103 139.67C211.267 137.525 210.637 134.369 210.423 131.138C209.969 124.498 212.931 119.487 218.249 115.827C220.19 114.489 222.357 113.491 224.424 112.343C224.537 112.469 224.663 112.595 224.777 112.734C223.655 115.89 222.546 119.058 221.425 122.214C220.668 124.347 219.95 126.493 219.106 128.601C218.703 129.623 218.917 130.305 219.61 131.1C222.37 134.268 225.054 137.499 227.763 140.705C228.003 140.996 228.204 141.311 228.583 141.829C223.353 142.839 218.488 143.028 214.09 139.696L214.103 139.67ZM227.032 128.399C226.239 122.996 228.583 118.49 233.787 115.473C234.72 114.93 235.728 114.514 237.089 113.845C235.652 117.909 234.443 121.519 233.107 125.092C232.741 126.076 232.892 126.707 233.548 127.452C235.577 129.787 237.555 132.16 239.572 134.533C234.531 137.171 227.852 133.852 227.045 128.386L227.032 128.399Z" fill="white"/>
<path d="M143.934 102.46C139.196 99.8215 134.47 100.352 130.816 104.012C125.283 109.566 123.368 116.193 125.686 123.792C127.778 130.671 133.084 134.975 139.272 135.013C143.531 135.038 147.463 133.132 150.009 129.711C157.393 119.815 152.327 107.13 143.934 102.447V102.46Z" fill="white"/>
</svg>
