<svg width="196" height="196" viewBox="0 0 196 196" fill="none" xmlns="http://www.w3.org/2000/svg">
<path d="M165.17 121.1C162.89 120.66 160.54 120.44 158.13 120.44H37.67C35.25 120.44 32.91 120.66 30.63 121.1C13.21 124.41 0 139.76 0 158.11C0 178.88 16.9 195.78 37.67 195.78C58.44 195.78 75.34 178.88 75.34 158.11V150.05H55.61V158.11C55.61 163.05 53.6 167.55 50.34 170.79C47.09 174.03 42.61 176.05 37.66 176.05C27.77 176.05 19.72 168.01 19.72 158.11C19.72 148.21 27.77 140.17 37.66 140.17H158.11C168 140.17 176.05 148.22 176.05 158.11C176.05 168 168 176.05 158.11 176.05C153.16 176.05 148.68 174.04 145.43 170.79C142.18 167.55 140.16 163.05 140.16 158.11V150.05H120.43V158.11C120.43 178.89 137.33 195.78 158.1 195.78C178.87 195.78 195.77 178.88 195.77 158.11C195.77 139.76 182.56 124.42 165.14 121.11L165.17 121.1Z" fill="white"/>
<path d="M140.18 37.67C140.18 27.77 148.23 19.73 158.13 19.73C168.03 19.73 176.07 27.77 176.07 37.67C176.07 47.57 168.02 55.61 158.13 55.61H150.06V75.34H158.13C160.06 75.34 161.97 75.19 163.82 74.92C181.9 72.17 195.8 56.51 195.8 37.68C195.8 16.9 178.9 0.0100098 158.13 0.0100098C147.74 0.0100098 138.33 4.24001 131.51 11.06C124.69 17.88 120.46 27.3 120.46 37.68V110.59H140.19V37.67H140.18Z" fill="white"/>
<path d="M31.98 74.91C33.84 75.19 35.74 75.33 37.67 75.33H45.74V55.6H37.67C27.78 55.6 19.73 47.55 19.73 37.66C19.73 27.77 27.78 19.72 37.67 19.72C47.56 19.72 55.62 27.76 55.62 37.66V110.57H75.35V37.67C75.35 27.28 71.12 17.87 64.3 11.05C57.48 4.23 48.06 0 37.67 0C16.9 0 0 16.9 0 37.67C0 56.5 13.9 72.16 31.98 74.91Z" fill="white"/>
<path d="M110.58 55.61H85.2197V75.34H110.58V55.61Z" fill="white"/>
</svg>
