<svg width="25" height="24" viewBox="0 0 25 24" fill="none" xmlns="http://www.w3.org/2000/svg">
<path fill-rule="evenodd" clip-rule="evenodd" d="M11.3053 0C10.2008 0 9.30533 0.895434 9.30533 2V3.4207L8.30079 2.41616C7.51974 1.63511 6.25341 1.63511 5.47236 2.41616L3.41228 4.47624C2.63123 5.25729 2.63124 6.52362 3.41228 7.30467L4.41678 8.30916H2.99649C1.89192 8.30916 0.99649 9.20459 0.99649 10.3092V13.2226C0.99649 14.3271 1.89192 15.2226 2.99649 15.2226H4.41696L3.41248 16.227L4.11959 16.9341L3.41248 16.227C2.63143 17.0081 2.63143 18.2744 3.41248 19.0555L5.47256 21.1155C6.25361 21.8966 7.51994 21.8966 8.30099 21.1155L9.30533 20.1112V21.5317C9.30533 22.6363 10.2008 23.5317 11.3053 23.5317H14.2187C15.3233 23.5317 16.2187 22.6363 16.2187 21.5317V20.1111L17.2233 21.1157C18.0043 21.8967 19.2707 21.8967 20.0517 21.1157L22.1118 19.0556C22.8928 18.2745 22.8928 17.0082 22.1118 16.2272L21.1072 15.2226H22.5282C23.6328 15.2226 24.5282 14.3271 24.5282 13.2226V10.3092C24.5282 9.20459 23.6328 8.30916 22.5282 8.30916H21.1074L22.112 7.30455C22.893 6.5235 22.893 5.25717 22.112 4.47612L20.0519 2.41604L19.3448 3.12315L20.0519 2.41604C19.2708 1.635 18.0045 1.635 17.2235 2.41604L16.2187 3.42079V2C16.2187 0.895429 15.3233 0 14.2187 0H11.3053ZM11.3053 2L14.2187 2L14.2187 3.42079C14.2187 5.2026 16.373 6.09494 17.6329 4.83501L18.6377 3.83026L20.6978 5.89034L19.6932 6.89495C18.4332 8.15488 19.3256 10.3092 21.1074 10.3092H22.5282L22.5282 13.2226H21.1072C19.3254 13.2226 18.433 15.3768 19.693 16.6368L20.6976 17.6414L18.6375 19.7014L17.6329 18.6969C16.373 17.437 14.2187 18.3293 14.2187 20.1111V21.5317L11.3053 21.5317V20.1112C11.3053 18.3294 9.15104 17.4371 7.89111 18.697L6.88677 19.7013L4.82669 17.6413L5.83117 16.6368C7.0911 15.3768 6.19877 13.2226 4.41696 13.2226H2.99649L2.99649 10.3092L4.41677 10.3092C6.19858 10.3092 7.09092 8.15488 5.83099 6.89495L4.8265 5.89045L6.88658 3.83037L7.89111 4.83491C9.15105 6.09484 11.3053 5.2025 11.3053 3.4207V2ZM10.441 11.7659C10.441 10.4838 11.4803 9.4445 12.7623 9.4445C14.0444 9.4445 15.0837 10.4838 15.0837 11.7659C15.0837 13.0479 14.0444 14.0873 12.7623 14.0873C11.4803 14.0873 10.441 13.0479 10.441 11.7659ZM12.7623 7.4445C10.3757 7.4445 8.44096 9.37924 8.44096 11.7659C8.44096 14.1525 10.3757 16.0873 12.7623 16.0873C15.149 16.0873 17.0837 14.1525 17.0837 11.7659C17.0837 9.37924 15.149 7.4445 12.7623 7.4445Z" fill="black"/>
</svg>
