<svg width="217" height="40" viewBox="0 0 217 40" fill="none" xmlns="http://www.w3.org/2000/svg">
<g clip-path="url(#clip0_308_35)">
<path d="M196.383 39.52H19.633C14.4305 39.5047 9.44536 37.4312 5.76659 33.7524C2.08781 30.0737 0.0143244 25.0886 -0.000976562 19.886V19.635C0.0140607 14.4323 2.08743 9.44694 5.76624 5.76794C9.44504 2.08895 14.4303 0.0153022 19.633 0H196.383C201.586 0.015301 206.571 2.0888 210.249 5.76758C213.928 9.44636 216.002 14.4314 216.017 19.634V19.885C216.002 25.0877 213.929 30.0731 210.25 33.7521C206.571 37.4311 201.586 39.5047 196.383 39.52Z" fill="white"/>
<path d="M15.8071 19.759C15.8106 22.9023 17.0608 25.9159 19.2835 28.1386C21.5062 30.3613 24.5198 31.6115 27.6631 31.615C30.3065 31.621 32.8744 30.7345 34.9511 29.099L32.4511 26.306C31.3041 27.1497 29.9551 27.6765 28.5398 27.8335C27.1246 27.9904 25.6929 27.772 24.3889 27.2002C23.0848 26.6283 21.9543 25.7232 21.111 24.5758C20.2677 23.4285 19.7414 22.0793 19.5849 20.664C19.4285 19.2487 19.6474 17.8171 20.2197 16.5133C20.792 15.2094 21.6975 14.0792 22.8452 13.2363C23.9929 12.3935 25.3423 11.8676 26.7576 11.7117C28.173 11.5557 29.6045 11.7752 30.9081 12.348L32.3991 8.89396C30.5953 8.10634 28.6238 7.78043 26.6625 7.94563C24.7012 8.11083 22.812 8.76194 21.1654 9.84019C19.5188 10.9184 18.1667 12.3899 17.2312 14.1216C16.2957 15.8533 15.8063 17.7907 15.8071 19.759Z" fill="black"/>
<path d="M21.3429 19.7588C21.3447 21.4343 22.0112 23.0407 23.1961 24.2253C24.3809 25.41 25.9874 26.0762 27.6629 26.0778C28.9336 26.0752 30.1729 25.6821 31.2129 24.9518C31.2129 24.9518 28.8649 22.3328 28.6589 22.1088C28.3424 22.2433 28.0027 22.3143 27.6589 22.3178C26.9802 22.3173 26.3294 22.0476 25.8493 21.5679C25.3692 21.0881 25.0989 20.4375 25.0979 19.7588C25.0928 19.3287 25.1961 18.9042 25.3981 18.5244C25.6002 18.1446 25.8946 17.8218 26.2542 17.5856C26.6137 17.3494 27.0269 17.2075 27.4557 17.173C27.8845 17.1384 28.3151 17.2123 28.7079 17.3878L30.1919 13.9878C29.3933 13.6362 28.5314 13.4511 27.6589 13.4438C25.9835 13.4454 24.3772 14.1115 23.1924 15.296C22.0076 16.4804 21.341 18.0865 21.3389 19.7618" fill="black"/>
<path d="M32.3759 17.3018C32.7634 18.0637 32.9714 18.9042 32.9839 19.7588C32.9536 20.9614 32.5457 22.124 31.8179 23.0818L34.3549 25.8818C35.8888 24.2135 36.7407 22.0301 36.7419 19.7638C36.7381 18.3591 36.4114 16.9741 35.7869 15.7158L32.3759 17.3018Z" fill="black"/>
<path d="M31.3232 15.9012L37.7602 12.8842C36.8223 11.491 35.6057 10.3074 34.1872 9.4082L31.3032 15.8812L31.3232 15.9012Z" fill="black"/>
<path d="M52.945 15.776L51.86 17.0069C51.3669 16.608 50.7551 16.3846 50.121 16.372C48.883 16.372 48.021 17.3119 48.021 19.5629C48.021 21.7739 48.869 22.7139 50.149 22.7139C50.845 22.6854 51.5115 22.4245 52.042 21.9729L53.057 23.217C52.2382 23.9818 51.1574 24.4037 50.037 24.3959C47.394 24.3959 45.627 22.7009 45.627 19.5629C45.627 16.4899 47.506 14.768 50.009 14.768C51.0779 14.733 52.1225 15.0913 52.945 15.7749" fill="black"/>
<path d="M60.8048 15.776L59.7198 17.0069C59.2268 16.608 58.6149 16.3846 57.9808 16.372C56.7428 16.372 55.8808 17.3119 55.8808 19.5629C55.8808 21.7739 56.7288 22.7139 58.0088 22.7139C58.7049 22.6854 59.3714 22.4245 59.9018 21.9729L60.9168 23.217C60.098 23.9818 59.0172 24.4037 57.8968 24.3959C55.2538 24.3959 53.4868 22.7009 53.4868 19.5629C53.4868 16.4899 55.3658 14.768 57.8688 14.768C58.9377 14.733 59.9823 15.0913 60.8048 15.7749" fill="black"/>
<path d="M64.073 14.9941H61.791V24.1711H64.073V14.9941Z" fill="black"/>
<path d="M73.6699 17.9872C73.6699 17.0082 73.0999 16.5442 71.9699 16.5442H71.1619V19.5462H72.0109C73.0399 19.5462 73.6659 19.1362 73.6659 17.9832M76.0179 17.9832C76.0179 20.1152 74.4319 21.1082 72.2059 21.1082H71.1609V24.1672H68.8799V14.9902H71.9959C74.4869 14.9902 76.0179 15.9702 76.0179 17.9832Z" fill="black"/>
<path d="M81.2798 20.6231L80.2628 16.5711L79.2478 20.6231H81.2798ZM81.6688 22.1981H78.8588L78.3718 24.1721H76.0068L78.9149 14.9951H81.6838L84.5918 24.1721H82.1708L81.6688 22.1981Z" fill="black"/>
<path d="M87.4412 19.166H88.4012C89.4012 19.166 89.9312 18.756 89.9312 17.789C89.9312 16.901 89.3882 16.517 88.2612 16.517H87.4412V19.166ZM88.3312 20.666H87.4412V24.176H85.1592V14.999H88.3172C90.9322 14.999 92.2822 15.885 92.2822 17.793C92.2903 18.3522 92.113 18.8983 91.7782 19.3462C91.4434 19.794 90.9698 20.1185 90.4312 20.269L92.8802 24.176H90.3072L88.3312 20.666Z" fill="black"/>
<path d="M95.8841 14.9941H93.6021V24.1711H95.8841V14.9941Z" fill="black"/>
<path d="M103.982 15.9482L102.925 17.1262C102.331 16.6319 101.584 16.3603 100.811 16.3582C100.018 16.3582 99.5172 16.6762 99.5172 17.2582C99.5172 17.8402 99.8782 18.0792 101.382 18.5292C103.204 19.0852 104.248 19.8002 104.248 21.4952C104.248 23.1902 102.828 24.3952 100.421 24.3952C99.0789 24.4422 97.7697 23.9734 96.7622 23.0852L97.9172 21.8792C98.5951 22.4608 99.459 22.7801 100.352 22.7792C101.298 22.7792 101.882 22.3562 101.882 21.6532C101.882 20.9782 101.52 20.6742 100.115 20.2622C97.9592 19.6282 97.1652 18.7802 97.1652 17.4162C97.1652 15.8012 98.6412 14.7672 100.643 14.7672C101.868 14.7023 103.069 15.1263 103.982 15.9462" fill="black"/>
<path d="M110.796 14.9941H108.514V24.1711H110.796V14.9941Z" fill="black"/>
<path d="M114.727 22.4501H118.484L118.247 24.1721H112.447V14.9941H114.727V22.4501Z" fill="black"/>
<path d="M125.123 16.547H121.728V18.747H124.692V20.27H121.728V22.615H125.36V24.176H119.446V14.999H125.36L125.123 16.547Z" fill="black"/>
<path d="M130.77 19.2202H126.332V20.8352H130.77V19.2202Z" fill="black"/>
<path d="M134.426 16.5711V22.5961H135.178C136.556 22.5961 137.478 21.9741 137.478 19.5371C137.478 17.0741 136.491 16.5711 135.154 16.5711H134.426ZM139.839 19.5371C139.839 23.2321 137.502 24.1731 135.039 24.1731H132.145V14.9961H134.83C137.403 14.9961 139.838 15.7501 139.838 19.5381" fill="black"/>
<path d="M146.738 16.547H143.343V18.747H146.307V20.27H143.343V22.615H146.975V24.176H141.061V14.999H146.975L146.738 16.547Z" fill="black"/>
<path d="M152.385 19.2202H147.947V20.8352H152.385V19.2202Z" fill="black"/>
<path d="M153.761 14.9951H159.504L159.267 16.5451H156.04V18.9811H158.85V20.5301H156.04V24.1721H153.758L153.761 14.9951Z" fill="black"/>
<path d="M162.674 19.166H163.634C164.634 19.166 165.164 18.756 165.164 17.789C165.164 16.901 164.621 16.517 163.495 16.517H162.675L162.674 19.166ZM163.564 20.666H162.674V24.176H160.392V14.999H163.55C166.165 14.999 167.515 15.885 167.515 17.793C167.523 18.3522 167.346 18.8983 167.011 19.3462C166.676 19.794 166.203 20.1185 165.664 20.269L168.113 24.176H165.544L163.564 20.666Z" fill="black"/>
<path d="M173.023 20.6231L172.007 16.5711L170.991 20.6231H173.023ZM173.412 22.1981H170.602L170.115 24.1721H167.75L170.658 14.9951H173.427L176.335 24.1721H173.914L173.412 22.1981Z" fill="black"/>
<path d="M184.338 24.1721H181.43L178.647 17.0612C178.836 18.3017 178.934 19.5543 178.94 20.8091V24.1721H176.908V14.9951H179.746L182.598 22.1191C182.399 20.9912 182.297 19.8484 182.292 18.7032V14.9941H184.337L184.338 24.1721Z" fill="black"/>
<path d="M192.864 15.776L191.778 17.0069C191.285 16.6081 190.674 16.3847 190.04 16.372C188.801 16.372 187.94 17.3119 187.94 19.5629C187.94 21.7739 188.788 22.7139 190.068 22.7139C190.763 22.6853 191.429 22.4244 191.959 21.9729L192.974 23.217C192.156 23.9816 191.076 24.4036 189.956 24.3959C187.313 24.3959 185.546 22.7009 185.546 19.5629C185.546 16.4899 187.424 14.768 189.928 14.768C190.997 14.733 192.041 15.0913 192.864 15.7749" fill="black"/>
<path d="M199.525 16.547H196.132V18.747H199.096V20.27H196.132V22.615H199.762V24.176H193.85V14.999H199.762L199.525 16.547Z" fill="black"/>
</g>
<defs>
<clipPath id="clip0_308_35">
<rect width="216.018" height="39.52" fill="white"/>
</clipPath>
</defs>
</svg>
