<svg width="56" height="56" viewBox="0 0 56 56" fill="none" xmlns="http://www.w3.org/2000/svg">
<g clip-path="url(#clip0_309_64)">
<rect width="56" height="56" rx="12" fill="#FDC463"/>
<path d="M63.4727 25.7345C63.0849 25.1019 62.1411 25.1897 61.8734 25.8818C61.6105 26.5614 61.3456 27.2026 61.1198 27.734C61.1098 27.7541 61.1047 27.7743 61.0946 27.7893C60.7013 28.8179 60.1317 29.9723 59.3199 31.1571C57.9133 33.1938 56.048 34.9181 53.7742 36.2792C51.584 37.585 49.003 38.5599 46.0757 39.1894C45.3567 39.344 44.7867 38.6021 45.0882 37.9313C46.8339 34.0465 47.5525 29.8144 47.2202 25.3138C46.9453 21.6336 46.0328 18.7284 45.46 17.223C45.3602 16.9604 45.3928 16.6695 45.5416 16.4313C45.9268 15.8147 46.2825 15.2032 46.6001 14.6056C47.2454 13.3956 47.8101 12.1856 48.2688 11.0008C48.3798 10.7387 48.4755 10.4714 48.5713 10.2093C48.7012 9.84605 48.8058 9.52859 48.8891 9.26207C49.0139 8.86237 48.8451 8.42838 48.4808 8.22218C48.2479 8.09032 48.0134 7.9611 47.7773 7.83435C47.2799 7.56684 46.6626 7.81786 46.4927 8.35652C46.4686 8.433 46.4452 8.50552 46.4234 8.57079C46.3898 8.67216 46.363 8.75737 46.3429 8.81786C46.3328 8.84308 46.3277 8.87325 46.3176 8.89846C46.2975 8.95385 46.2773 9.00939 46.2571 9.06988C46.1765 9.29174 46.0857 9.54376 45.9748 9.82611C45.6219 10.7386 45.0976 11.9435 44.3666 13.3148C42.7785 16.2995 39.8443 20.6906 34.8784 24.6784C33.5756 25.727 32.3992 26.8853 31.357 28.1432C30.8181 28.794 29.7661 28.4274 29.7661 27.5825V3.8988C29.7661 3.40696 29.3697 3.00626 28.8777 3.00165C28.7521 3.00049 28.6264 3 28.5006 3C28.3748 3 28.2491 3.00049 28.1235 3.00165C27.6316 3.0061 27.2351 3.40679 27.2351 3.8988V27.5828C27.2351 28.4277 26.1833 28.7943 25.6442 28.1436C24.6021 26.8856 23.4256 25.7275 22.1228 24.6787C17.1569 20.6909 14.2227 16.2996 12.6346 13.3151C11.9036 11.9438 11.3793 10.7389 11.0264 9.82643C10.9155 9.54409 10.8247 9.29207 10.7441 9.07021C10.7239 9.00972 10.7037 8.95418 10.6836 8.89879C10.6735 8.87358 10.6684 8.84341 10.6583 8.81819C10.6382 8.7577 10.6114 8.67249 10.5777 8.57112C10.556 8.50585 10.5326 8.43316 10.5085 8.35685C10.3386 7.81819 9.72131 7.56716 9.22386 7.83468C8.988 7.96159 8.75345 8.09082 8.52039 8.22251C8.15595 8.42871 7.98717 8.8627 8.11211 9.2624C8.19535 9.52892 8.30001 9.84621 8.4299 10.2097C8.52566 10.4719 8.62142 10.7391 8.73235 11.0012C9.19123 12.1859 9.75576 13.3959 10.4011 14.6059C10.7187 15.2036 11.0744 15.8149 11.4596 16.4317C11.6084 16.6698 11.6409 16.9608 11.5412 17.2233C10.9684 18.7287 10.0561 21.6341 9.78097 25.3141C9.44869 29.8147 10.1673 34.0468 11.913 37.9316C12.2145 38.6024 11.6445 39.3443 10.9255 39.1897C7.99805 38.5602 5.41721 37.5853 3.227 36.2795C0.953221 34.9182 -0.912116 33.1942 -2.31874 31.1574C-3.13034 29.9726 -3.70015 28.8182 -4.09342 27.7897C-4.10348 27.7745 -4.10859 27.7544 -4.11864 27.7343C-4.34445 27.2029 -4.60933 26.5617 -4.87223 25.8821C-5.14007 25.19 -6.08386 25.102 -6.47153 25.7348L-6.86876 26.3827C-7.00277 26.6014 -7.03458 26.8658 -6.96222 27.1119C-6.8892 27.36 -6.80629 27.6201 -6.71498 27.8905C-5.99914 29.9425 -4.95546 31.8431 -3.62449 33.5372C-1.88014 35.7654 0.368418 37.6207 3.04552 39.0526C6.14277 40.7015 9.83817 41.79 14.049 42.2952C14.2934 42.3245 14.5146 42.4537 14.6602 42.6522C15.6264 43.9703 16.7045 45.2019 17.9432 46.403L18.5835 47.0181C20.6051 48.9792 22.6773 50.9858 24.5225 53.1587C25.3752 54.162 26.1749 55.205 26.9095 56.2957C27.0104 56.4455 27.0635 56.623 27.0635 56.8037V73.8394C27.0635 73.9655 27.0379 74.0908 26.9877 74.2063C26.0444 76.3763 24.9051 78.4547 23.5748 80.4234C22.0219 82.7273 20.212 84.8902 18.1551 86.8917C15.0747 89.8913 12.8665 93.5414 11.6011 97.741C10.7188 100.67 10.492 103.221 10.4517 104.814V105.995C10.4517 106.435 10.1344 106.81 9.69922 106.879C7.49797 107.228 4.70549 107.694 2.86224 108.046C2.37023 108.14 2.05442 108.618 2.15695 109.109L2.41012 110.319C2.51017 110.797 2.97267 111.107 3.45297 111.015C5.05014 110.709 7.39248 110.313 9.41671 109.989C9.96064 109.902 10.4517 110.323 10.4517 110.874V115.913C10.4517 116.257 10.6471 116.575 10.9573 116.724C11.3315 116.903 11.7083 117.076 12.0884 117.243C12.6824 117.504 13.3506 117.072 13.3506 116.423V110.169C13.3506 109.72 13.6854 109.34 14.1312 109.281C14.5131 109.23 14.8891 109.182 15.2562 109.14C17.0762 108.913 18.9113 108.727 20.7162 108.581C22.5026 108.442 24.2034 107.916 25.7238 107.062C26.326 106.724 27.0686 107.144 27.0686 107.835V129.267C27.0686 129.758 27.4637 130.157 27.9547 130.164C28.1365 130.167 28.3185 130.169 28.5004 130.169C28.6824 130.169 28.8644 130.167 29.0462 130.164C29.5372 130.156 29.9323 129.758 29.9323 129.267V107.835C29.9323 107.144 30.675 106.724 31.2771 107.062C32.7973 107.916 34.4981 108.442 36.2847 108.581C38.0895 108.727 39.9247 108.913 41.7447 109.14C42.1118 109.182 42.4879 109.23 42.8696 109.281C43.3155 109.34 43.6503 109.72 43.6503 110.169V116.423C43.6503 117.072 44.3185 117.504 44.9125 117.243C45.2924 117.076 45.6692 116.903 46.0435 116.724C46.3536 116.575 46.5492 116.257 46.5492 115.913V110.874C46.5492 110.323 47.0402 109.903 47.5842 109.989C49.6084 110.313 51.9506 110.709 53.5479 111.015C54.0282 111.107 54.4905 110.797 54.5907 110.319L54.8439 109.109C54.9464 108.618 54.6306 108.14 54.1386 108.046C52.2954 107.694 49.5031 107.228 47.3016 106.879C46.8667 106.81 46.5492 106.435 46.5492 105.995V104.814C46.5088 103.221 46.282 100.67 45.3997 97.741C44.1343 93.5414 41.926 89.8913 38.8457 86.8917C36.7887 84.8902 34.9789 82.7273 33.4261 80.4234C32.0956 78.4547 30.9565 76.3763 30.0132 74.2063C29.9629 74.0906 29.9374 73.9655 29.9374 73.8394V56.8037C29.9374 56.623 29.9905 56.4455 30.0913 56.2957C30.826 55.2049 31.6257 54.162 32.4783 53.1587C34.3236 50.9858 36.3956 48.9792 38.4174 47.0181L39.0577 46.403C40.2964 45.2017 41.3745 43.9701 42.3407 42.6522C42.4863 42.4536 42.7074 42.3244 42.9519 42.2952C47.1627 41.79 50.8583 40.7015 53.9553 39.0526C56.6324 37.6207 58.881 35.7654 60.6254 33.5372C61.9563 31.8432 62.9998 29.9425 63.7158 27.8905C63.8072 27.6201 63.8899 27.36 63.9631 27.1119C64.0356 26.8658 64.0038 26.6014 63.8696 26.3827L63.4724 25.7348L63.4727 25.7345ZM27.0691 101.638C27.0691 101.844 27.002 102.046 26.8718 102.205C25.2829 104.148 22.9905 105.367 20.4798 105.565C18.6295 105.712 16.7441 105.903 14.8988 106.14C14.7183 106.16 14.5367 106.181 14.3534 106.203C13.821 106.268 13.3511 105.851 13.3511 105.315V104.814H13.3411C13.4569 101.532 14.435 94.5193 20.1673 88.9484C22.7083 86.478 23.5955 85.7469 25.4155 82.8178C25.4167 82.816 25.418 82.814 25.4193 82.8117C25.902 82.0603 27.0691 82.4021 27.0691 83.2952V101.638V101.638ZM27.2354 50.0084C27.2354 50.836 26.2166 51.2142 25.6654 50.597C23.9936 48.7239 22.1976 46.9786 20.4393 45.2736L19.7132 44.5678C15.196 40.1867 12.6803 35.0242 12.2366 29.2213C11.9926 26.0224 12.4299 23.1806 12.9611 21.0704C13.1403 20.3583 14.0529 20.1628 14.5189 20.7303C16.2819 22.8774 18.2964 24.8638 20.525 26.6501C23.5243 29.0783 25.8194 32.206 27.1739 35.7152C27.2148 35.8213 27.2352 35.9344 27.2352 36.0481V50.0084H27.2354ZM31.5863 82.818C33.4063 85.7471 34.2936 86.4781 36.8345 88.9485C42.5668 94.5195 43.5448 101.532 43.6608 104.814H43.6507V105.315C43.6507 105.851 43.1808 106.268 42.6484 106.204C42.4652 106.181 42.2835 106.16 42.103 106.14C40.2578 105.903 38.3724 105.712 36.522 105.566C34.0114 105.367 31.7188 104.148 30.1301 102.205C30 102.046 29.9328 101.844 29.9328 101.638V83.2955C29.9328 82.4025 31.0999 82.0606 31.5825 82.8121C31.584 82.8142 31.5852 82.8163 31.5863 82.8182V82.818ZM37.2883 44.5678L36.5622 45.2736C34.8039 46.9786 33.0079 48.7239 31.3361 50.597C30.7851 51.2144 29.7661 50.836 29.7661 50.0084V36.0481C29.7661 35.9344 29.7866 35.8211 29.8274 35.7152C31.182 32.206 33.477 29.0783 36.4764 26.6501C38.705 24.8638 40.7193 22.8772 42.4825 20.7303C42.9484 20.163 43.8609 20.3585 44.0402 21.0704C44.5715 23.1805 45.0087 26.0224 44.7648 29.2213C44.3211 35.0242 41.8054 40.1867 37.2881 44.5678H37.2883Z" fill="#221F20"/>
</g>
<defs>
<clipPath id="clip0_309_64">
<rect width="56" height="56" fill="white"/>
</clipPath>
</defs>
</svg>
