<svg width="119" height="82" viewBox="0 0 119 82" fill="none" xmlns="http://www.w3.org/2000/svg">
<path d="M55.7384 0.668673C50.6246 1.78909 46.4303 5.81111 45.08 10.8817C44.606 12.6485 44.606 16.1534 45.08 17.9203C46.1142 21.7986 48.9009 25.1886 52.5064 26.9698C54.8047 28.1046 55.8964 28.3344 58.8985 28.32C61.8145 28.32 62.7769 28.1189 64.989 27.0703C68.6375 25.3323 71.2662 22.2439 72.5015 18.2506C72.8607 17.0728 72.8894 16.7998 72.8894 14.401C72.8894 12.0021 72.8607 11.7292 72.5015 10.5513C71.2518 6.51496 68.6088 3.42663 64.8741 1.67418C62.8631 0.740494 61.8576 0.52503 59.2576 0.453207C57.3903 0.410114 56.7295 0.453207 55.7384 0.668673ZM59.8035 11.4707C60.9813 11.801 61.9581 13.1226 61.9581 14.401C61.9581 16.2109 60.3206 17.6617 58.4963 17.4462C56.945 17.2739 55.6522 15.7512 55.7671 14.2286C55.9395 12.232 57.8499 10.9248 59.8035 11.4707Z" fill="white"/>
<path d="M46.8182 27.3146C45.0801 28.4782 43.7586 30.3024 43.1553 32.3565C42.8249 33.5057 42.8249 36.0338 43.1553 37.2979C43.9022 40.1564 46.258 42.5839 49.5618 43.9055C50.8545 44.4082 55.7672 45.9596 64.199 48.5021C68.7669 49.8954 70.5768 50.4987 71.0365 50.8147C72.0563 51.5186 72.4872 52.4235 72.2287 53.3428C72.042 54.0611 70.8641 55.282 69.8155 55.8279C69.3415 56.0864 68.9536 56.345 68.9536 56.4312C68.9536 56.6179 69.0254 56.6035 69.7868 56.2157C72.1569 55.0235 73.9524 52.7683 74.6275 50.1683C74.9005 49.0766 74.9148 46.448 74.6275 45.2413C74.2541 43.6469 73.5071 42.3972 72.1281 41.047C70.6773 39.6105 69.1835 38.763 66.7128 37.9586C64.4145 37.2117 56.5716 34.7841 51.7882 33.362C47.2778 31.9974 46.8325 31.8251 46.143 31.1212C45.037 29.9864 45.5397 28.4063 47.3927 27.329C47.7949 27.0848 48.1253 26.855 48.1253 26.7832C48.1253 26.5533 47.7088 26.7113 46.8182 27.3146Z" fill="white"/>
<path d="M4.6444 58.9306C2.84885 59.3184 1.22568 60.6112 0.464373 62.2631C-0.0383793 63.3691 -0.153294 65.2078 0.220179 66.4C1.31187 69.8618 5.4488 71.485 8.88188 69.8044C10.5769 68.9856 11.8266 67.2044 12.0133 65.3514L12.1139 64.4608H8.3504H4.6013V65.4663V66.4718L7.01451 66.5006L9.41336 66.5437L8.66641 67.2906C7.91947 68.0376 6.94269 68.4828 6.03774 68.4828C5.19024 68.4828 4.14165 68.0376 3.40906 67.3624C2.51847 66.5293 2.11627 65.6674 2.11627 64.6045C2.11627 61.43 6.00901 59.6488 8.39349 61.746C9.02552 62.3062 9.02552 62.3062 10.2609 62.3062C10.936 62.3062 11.4962 62.2631 11.4962 62.1913C11.4962 61.9327 10.462 60.5825 9.94484 60.1659C9.1548 59.5482 7.9482 59.0167 6.94269 58.8587C5.90846 58.6864 5.75045 58.6864 4.6444 58.9306Z" fill="white"/>
<path d="M22.801 58.8586C21.1203 59.1603 19.2817 60.5536 18.5922 62.0906C17.5293 64.4033 17.9458 66.917 19.6552 68.6695C20.8474 69.8761 22.2695 70.4938 23.9214 70.4938C25.5733 70.4938 26.9954 69.8761 28.1876 68.6695C31.1467 65.6386 29.9257 60.5105 25.918 59.0885C25.128 58.8156 23.6485 58.7006 22.801 58.8586ZM25.5158 61.2144C27.886 62.3205 28.4318 65.4519 26.5644 67.3192C25.7888 68.1093 25.0562 68.3966 23.9214 68.3966C22.7866 68.3966 22.054 68.1093 21.2784 67.3192C18.8939 64.9348 20.5601 60.8697 23.9214 60.8697C24.5247 60.8697 24.9987 60.9702 25.5158 61.2144Z" fill="white"/>
<path d="M113.698 58.8444C112.176 59.2322 111.185 60.4675 111.185 61.9758C111.199 63.3691 112.047 64.4752 113.584 65.021C115.58 65.7536 115.939 66.0553 115.968 66.9889C116.011 68.569 113.727 69.0143 113.11 67.5492L112.908 67.0464H111.831C110.625 67.0464 110.625 67.0608 110.912 68.0663C111.142 68.7989 111.774 69.5458 112.592 70.0342C113.181 70.3646 113.426 70.422 114.417 70.422C115.307 70.422 115.695 70.3502 116.14 70.106C116.887 69.7182 117.577 68.9856 117.85 68.3105C118.151 67.6066 118.137 66.1558 117.85 65.5238C117.462 64.705 116.456 63.9437 115.178 63.4984C113.813 63.0244 113.339 62.6366 113.339 62.0189C113.339 61.4012 113.54 61.0708 114.029 60.8985C114.603 60.6974 115.322 61.0277 115.537 61.588C115.695 62.0189 115.709 62.0189 116.744 62.0189H117.792V61.588C117.792 60.7261 117.002 59.6344 116.054 59.146C115.451 58.83 114.316 58.6864 113.698 58.8444Z" fill="white"/>
<path d="M37.4956 64.6045V70.2353L39.837 70.1922C42.1209 70.1348 42.2071 70.1204 43.0259 69.7038C44.4049 69 45.0656 67.5779 44.764 65.9691C44.6634 65.4663 43.701 64.3028 43.2413 64.1305C43.069 64.073 43.0833 64.0155 43.3563 63.8144C43.859 63.441 44.1032 62.8233 44.1032 61.9327C44.1032 60.8554 43.6292 60.0223 42.6955 59.4764C42.0491 59.0886 41.9342 59.0742 39.7652 59.0311L37.4956 58.9737V64.6045ZM41.5607 61.3007C42.6237 62.1338 41.8336 63.3117 40.2248 63.3117H39.6503V62.1625V61.0134H40.4259C40.9718 61.0134 41.2878 61.0996 41.5607 61.3007ZM41.7187 65.4663C42.3364 65.6962 42.6668 66.1415 42.6668 66.7304C42.6668 67.6641 41.848 68.1956 40.4259 68.1956H39.6503V66.7591V65.3227H40.4978C40.9718 65.3227 41.5176 65.3802 41.7187 65.4663Z" fill="white"/>
<path d="M53.1528 64.6044V70.2065H56.2412H59.3295V69.201V68.1955H57.3185H55.3075V66.9027V65.6099H57.2467H59.1859V64.6044V63.5989H57.2467H55.3075V62.3061V61.0133H57.3185H59.3295V60.0078V59.0023H56.2412H53.1528V64.6044Z" fill="white"/>
<path d="M68.2354 64.6044V70.2065H71.0364H73.8374V69.201V68.1955H72.1137H70.39V63.5989V59.0023H69.3127H68.2354V64.6044Z" fill="white"/>
<path d="M81.5942 64.6044V70.2065H82.6716H83.7489V64.6044V59.0023H82.6716H81.5942V64.6044Z" fill="white"/>
<path d="M93.2294 64.6044V70.2065H94.2349H95.2404V66.2563C95.2404 64.0873 95.2835 62.3061 95.3553 62.3061C95.4128 62.3061 96.4757 64.0873 97.7254 66.2563L100.009 70.2065H101.216H102.423V64.6044V59.0023H101.345H100.268L100.239 63.0099L100.196 67.0176L97.8978 63.0099L95.5995 59.0023H94.4216H93.2294V64.6044Z" fill="white"/>
<path d="M11.1514 72.8639C10.62 73.3379 10.6056 73.3667 10.936 73.3667C11.1371 73.3667 11.6398 73.1368 12.0708 72.8639L12.8608 72.3755H12.2862C11.8409 72.3755 11.5824 72.4761 11.1514 72.8639Z" fill="white"/>
<path d="M18.4916 73.6539C17.2419 73.9699 16.1502 74.8462 15.7193 75.8947C15.6044 76.1677 15.5182 76.8859 15.5182 77.5754C15.5182 78.5809 15.5756 78.8969 15.8917 79.5289C17.0695 81.8703 20.7468 82.2294 22.5424 80.1753C22.9015 79.7731 22.9733 79.6151 22.8153 79.5289C22.4705 79.2991 22.1832 79.3996 21.6805 79.9168C20.1004 81.5974 17.4717 81.1808 16.5668 79.1124C16.2795 78.4803 16.2508 76.9146 16.5093 76.182C16.9259 74.9611 18.233 74.0848 19.5977 74.0848C20.2297 74.0992 21.1346 74.5445 21.5799 75.076C21.9821 75.55 22.7004 75.708 22.7004 75.3202C22.7004 74.9754 22.0109 74.2716 21.3645 73.9556C20.6463 73.6108 19.2673 73.4672 18.4916 73.6539Z" fill="white"/>
<path d="M27.297 73.7258C25.5589 74.2142 24.5677 75.5931 24.5677 77.5323C24.5677 79.2417 25.2285 80.4339 26.5357 81.0803C27.2682 81.4394 27.5268 81.4825 28.6616 81.4825C29.7676 81.4682 30.0549 81.4107 30.6726 81.0947C32.0803 80.3621 32.5974 79.3997 32.6118 77.518C32.6118 76.4837 32.5543 76.1821 32.2383 75.5501C31.635 74.3434 30.6151 73.7258 29.0063 73.5821C28.403 73.539 27.8141 73.5821 27.297 73.7258ZM29.7533 74.3004C31.4626 74.9037 32.2958 77.0727 31.5632 78.9975C30.7588 81.0947 27.9721 81.6549 26.3633 80.0461C25.6882 79.3853 25.4296 78.6384 25.4296 77.4461C25.4296 75.0186 27.5124 73.5103 29.7533 74.3004Z" fill="white"/>
<path d="M106.301 73.6971C105.31 73.9269 104.764 74.2142 104.204 74.8319C103.399 75.6794 103.213 76.1821 103.213 77.5324C103.213 78.6384 103.256 78.8252 103.658 79.5434C104.793 81.54 107.594 82.1433 110.222 80.9511L110.897 80.6494V79.2274V77.8197H109.317C107.838 77.8197 107.737 77.834 107.737 78.1069C107.737 78.3655 107.838 78.3942 108.958 78.3942H110.194L110.151 79.3566L110.107 80.3334L109.533 80.6207C108.685 81.0516 106.603 81.0229 105.769 80.592C103.471 79.3566 103.414 75.9092 105.669 74.6308C107.048 73.8695 108.57 73.9557 109.576 74.875C110.064 75.3059 110.151 75.3346 110.524 75.1766L110.941 75.0043L110.452 74.602C109.389 73.6971 107.795 73.3524 106.301 73.6971Z" fill="white"/>
<path d="M0.148315 77.5323V81.4107H2.0875C3.92614 81.4107 4.02669 81.3963 4.02669 81.1234C4.02669 80.8648 3.91177 80.8361 2.4897 80.8074L0.938354 80.7643L0.895261 77.2019L0.866533 73.6539H0.507424H0.148315V77.5323Z" fill="white"/>
<path d="M8.91064 77.5323V81.4107H11.0653C13.1194 81.4107 13.2199 81.3963 13.2199 81.1234C13.2199 80.8505 13.1194 80.8361 11.4962 80.8361H9.77251V79.256V77.676H11.0653C12.2575 77.676 12.3581 77.6616 12.3581 77.3887C12.3581 77.1157 12.2575 77.1014 11.0653 77.1014H9.77251V75.6649V74.2285H11.4962C13.1194 74.2285 13.2199 74.2141 13.2199 73.9412C13.2199 73.6683 13.1194 73.6539 11.0653 73.6539H8.91064V77.5323Z" fill="white"/>
<path d="M35.0537 77.5323V81.4107H37.0647C38.9752 81.4107 39.0757 81.3963 39.0757 81.1234C39.0757 80.8505 38.9752 80.8361 37.4957 80.8361H35.9156V77.245V73.6539H35.4846H35.0537V77.5323Z" fill="white"/>
<path d="M41.5177 77.5323V81.4107H43.6724C45.7265 81.4107 45.827 81.3963 45.827 81.1234C45.827 80.8505 45.7265 80.8361 44.1033 80.8361H42.3796V79.256V77.676H43.6724C44.8646 77.676 44.9651 77.6616 44.9651 77.3887C44.9651 77.1157 44.8646 77.1014 43.6724 77.1014H42.3796V75.6649V74.2285H44.0315C45.5828 74.2285 45.6834 74.2141 45.6834 73.9412C45.6834 73.6683 45.5828 73.6539 43.6005 73.6539H41.5177V77.5323Z" fill="white"/>
<path d="M51.2854 77.5324V81.4395L53.2677 81.382C55.1207 81.339 55.2787 81.3102 55.9969 80.908C57.1317 80.2904 57.5052 79.5721 57.577 77.8915C57.6488 76.3258 57.4621 75.5501 56.8444 74.8463C56.0975 73.9988 55.3936 73.7689 53.1959 73.6828L51.2854 73.6109V77.5324ZM55.4942 74.7026C56.4135 75.2485 56.7869 76.0529 56.7869 77.5324C56.7869 79.9025 55.7671 80.8362 53.1959 80.8362H52.1473V77.518V74.1855L53.4975 74.2573C54.6179 74.3148 54.9627 74.401 55.4942 74.7026Z" fill="white"/>
<path d="M60.4786 77.5323V81.4107H62.6333C64.6874 81.4107 64.7879 81.3963 64.7879 81.1234C64.7879 80.8505 64.6874 80.8361 63.0642 80.8361H61.3405V79.256V77.676H62.7051C63.9692 77.676 64.0697 77.6616 64.0697 77.3887C64.0697 77.1157 63.9692 77.1014 62.7051 77.1014H61.3261L61.3692 75.6937L61.4123 74.3003L63.1073 74.2572C64.673 74.2285 64.7879 74.1998 64.7879 73.9412C64.7879 73.6683 64.6874 73.6539 62.6333 73.6539H60.4786V77.5323Z" fill="white"/>
<path d="M69.9591 77.5323V81.4107H71.9701C73.8806 81.4107 73.9811 81.3963 73.9811 81.1234C73.9811 80.8505 73.8806 80.8361 72.401 80.8361H70.821V77.245V73.6539H70.39H69.9591V77.5323Z" fill="white"/>
<path d="M79.1522 77.5323V81.4107H79.5832H80.0141V77.5323V73.6539H79.5832H79.1522V77.5323Z" fill="white"/>
<path d="M83.8926 77.5324V81.4107H84.2517H84.6108L84.6395 77.9489L84.6826 74.4871L86.1191 77.9633L87.5555 81.4251L87.9721 81.382C88.3886 81.3389 88.4461 81.2384 89.7963 77.992C90.5576 76.1534 91.2328 74.602 91.2902 74.5446C91.3477 74.4871 91.3477 76.0097 91.2902 77.9202L91.1753 81.4107H91.635H92.0803V77.518V73.6396L91.4195 73.6827L90.7587 73.7258L89.3798 77.0583C88.6184 78.897 87.9577 80.3478 87.9146 80.2903C87.8571 80.2329 87.2107 78.7246 86.4782 76.9147L85.1279 73.654H84.5102H83.8926V77.5324Z" fill="white"/>
<path d="M97.1652 74.1711C97.0502 74.4583 96.3895 75.9953 95.7144 77.5898C95.0392 79.1698 94.3928 80.6925 94.2779 80.9367L94.0912 81.4107H94.5652C95.0392 81.4107 95.068 81.382 95.5276 80.1897L96.0016 78.9687H97.8977H99.7938L100.268 80.1897C100.728 81.382 100.756 81.4107 101.216 81.4107C101.618 81.4107 101.676 81.3676 101.604 81.1665C101.546 81.0228 100.814 79.2991 99.9662 77.3168L98.4149 73.7258L97.8977 73.6827C97.4237 73.6396 97.3663 73.6827 97.1652 74.1711ZM98.7309 76.4119L99.5209 78.3942H97.8977H96.2602L96.6624 77.4174C96.8779 76.8859 97.237 75.981 97.4524 75.4064C97.6823 74.8318 97.8834 74.3722 97.8977 74.4009C97.9265 74.4296 98.2999 75.3346 98.7309 76.4119Z" fill="white"/>
<path d="M113.77 77.5323V81.4107H115.925C117.979 81.4107 118.08 81.3963 118.08 81.1234C118.08 80.8648 117.965 80.8361 116.327 80.8074L114.56 80.7643L114.517 79.2129L114.474 77.676H115.853C117.117 77.676 117.218 77.6616 117.218 77.3887C117.218 77.1157 117.117 77.1014 115.853 77.1014H114.474L114.517 75.6937L114.56 74.3003L116.255 74.2572C117.821 74.2285 117.936 74.1998 117.936 73.9412C117.936 73.6683 117.835 73.6539 115.853 73.6539H113.77V77.5323Z" fill="white"/>
<path d="M5.14713 74.8031C4.94603 75.7655 4.94603 75.8086 5.20458 75.8086C5.34823 75.8086 5.46314 75.7798 5.46314 75.7368C5.46314 75.708 5.62115 75.2484 5.82225 74.7313L6.16699 73.7976H5.76479C5.39132 73.7976 5.36259 73.855 5.14713 74.8031Z" fill="white"/>
<path d="M75.1015 75.0185C74.9004 76.0097 74.9004 76.0959 75.1302 76.0959C75.2883 76.0959 75.475 75.7942 75.7192 75.1335C75.9059 74.602 76.0927 74.1136 76.107 74.0561C76.1357 73.9987 75.9634 73.9412 75.7335 73.9412C75.3313 73.9412 75.3026 73.9699 75.1015 75.0185Z" fill="white"/>
</svg>
